<?xml version="1.0" encoding="iso-8859-1"?>
<!-- Generator: Adobe Illustrator 21.1.0, SVG Export Plug-In . SVG Version: 6.00 Build 0)  -->
<svg xmlns="http://www.w3.org/2000/svg" xmlns:xlink="http://www.w3.org/1999/xlink" version="1.1" id="Layer_1" x="0px" y="0px" viewBox="0 0 64 64" style="enable-background:new 0 0 64 64;" xml:space="preserve">
<g>
	<path style="fill:#85CBF8;" d="M53,57.055H11c-3.314,0-6-2.686-6-6v-42c0-3.314,2.686-6,6-6h42c3.314,0,6,2.686,6,6v42   C59,54.368,56.314,57.055,53,57.055z"/>
	<path style="fill:#ACE3FF;" d="M56,10H8c-1.657,0-3-1.343-3-3v0c0-2.209,1.791-4,4-4h46c2.209,0,4,1.791,4,4v0   C59,8.657,57.657,10,56,10z"/>
	<g>
		<path style="fill:#8D6C9F;" d="M53,2.055H11c-3.86,0-7,3.14-7,7v42C4,54.915,7.14,58,11,58h42c3.86,0,7-3.085,7-6.945v-42    C60,5.195,56.86,2.055,53,2.055z M58,51.055c0,2.757-2.243,5-5,5H11c-2.757,0-5-2.243-5-5v-42C6,6.298,8.243,4,11,4h42    c2.757,0,5,2.298,5,5.055V51.055z"/>
		<path style="fill:#8D6C9F;" d="M15,11.055v-2c0-0.552-0.448-1-1-1s-1,0.448-1,1v2c0,0.552,0.448,1,1,1S15,11.607,15,11.055z"/>
		<path style="fill:#8D6C9F;" d="M9,8.055c-0.552,0-1,0.448-1,1v2c0,0.552,0.448,1,1,1s1-0.448,1-1v-2C10,8.502,9.552,8.055,9,8.055    z"/>
		<path style="fill:#8D6C9F;" d="M29,12.055c0.552,0,1-0.448,1-1v-2c0-0.552-0.448-1-1-1s-1,0.448-1,1v2    C28,11.607,28.448,12.055,29,12.055z"/>
		<path style="fill:#8D6C9F;" d="M34,12.055c0.552,0,1-0.448,1-1v-2c0-0.552-0.448-1-1-1s-1,0.448-1,1v2    C33,11.607,33.448,12.055,34,12.055z"/>
		<path style="fill:#8D6C9F;" d="M40,9.055c0-0.552-0.448-1-1-1s-1,0.448-1,1v2c0,0.552,0.448,1,1,1s1-0.448,1-1V9.055z"/>
		<path style="fill:#8D6C9F;" d="M44,12.055c0.552,0,1-0.448,1-1v-2c0-0.552-0.448-1-1-1s-1,0.448-1,1v2    C43,11.607,43.448,12.055,44,12.055z"/>
		<path style="fill:#8D6C9F;" d="M49,8.055c-0.552,0-1,0.448-1,1v2c0,0.552,0.448,1,1,1s1-0.448,1-1v-2    C50,8.502,49.552,8.055,49,8.055z"/>
		<path style="fill:#8D6C9F;" d="M54,8.055c-0.552,0-1,0.448-1,1v2c0,0.552,0.448,1,1,1s1-0.448,1-1v-2    C55,8.502,54.552,8.055,54,8.055z"/>
		<path style="fill:#8D6C9F;" d="M19,12.055c0.552,0,1-0.448,1-1v-2c0-0.552-0.448-1-1-1s-1,0.448-1,1v2    C18,11.607,18.448,12.055,19,12.055z"/>
		<path style="fill:#8D6C9F;" d="M24,8.055c-0.552,0-1,0.448-1,1v2c0,0.552,0.448,1,1,1s1-0.448,1-1v-2    C25,8.502,24.552,8.055,24,8.055z"/>
		<path style="fill:#FFFFFF;" d="M17.988,24.037l3.02-0.019c0.497,0,1.031,0.201,1.408,0.576S23,25.468,23,26    c0,0.552,0.448,0.999,1,0.999s1-0.449,1-1.001c0-1.067-0.417-2.07-1.174-2.822c-0.751-0.747-1.747-1.158-2.806-1.158    c-0.008,0-0.016,0-0.024,0l-3.02,0.019c-2.192,0.013-3.976,1.808-3.976,4v10.018c0,2.206,1.794,4,4,4h3.02    c2.194,0,3.98-1.786,3.98-3.98V33c0-0.552-0.448-1-1-1s-1,0.448-1,1v3.075c0,1.092-0.888,1.98-1.98,1.98H18c-1.103,0-2-0.897-2-2    V26.037C16,24.94,16.892,24.043,17.988,24.037z"/>
		<path style="fill:#FFFFFF;" d="M37,30h-3v-3c0-0.552-0.448-1-1-1s-1,0.448-1,1v3h-3c-0.552,0-1,0.448-1,1s0.448,1,1,1h3v3    c0,0.552,0.448,1,1,1s1-0.448,1-1v-3h3c0.552,0,1-0.448,1-1S37.552,30,37,30z"/>
		<path style="fill:#FFFFFF;" d="M49,30h-3v-3c0-0.552-0.448-1-1-1s-1,0.448-1,1v3h-3c-0.552,0-1,0.448-1,1s0.448,1,1,1h3v3    c0,0.552,0.448,1,1,1s1-0.448,1-1v-3h3c0.552,0,1-0.448,1-1S49.552,30,49,30z"/>
	</g>
</g>
</svg>
